DBRep_DrawableShape

CASCADE Topology V1, (c) Matra-Datavision
Locations 39
1
-2.22044604925031e-16               1               0               0 
             -1 -2.22044604925031e-16               0               0 
              0               0               1               0 
1
              1               0               0               0 
              0               0              -1               0 
              0               1               0               0 
1
              1               0               0               0 
              0               1               0               0 
              0               0               1               0 
1
              1               0               0               0 
              0               0              -1               0 
              0               1               0               0 
1
              1               0               0               0 
              0              -0              -1               0 
              0               1              -0               0 
2  3 1 4 1 5 -1 0
2  3 -1 0
1
              1               0               0               0 
              0               1               0               0 
              0               0               1               0 
1
              1               0               0               0 
              0               0              -1               0 
              0               1               0               0 
1
              1               0               0               0 
              0              -0              -1               0 
              0               1              -0               0 
2  8 1 9 1 10 -1 0
2  5 1 4 -1 0
2  8 1 9 1 10 -1 3 1 0
2  9 -1 8 -1 0
2  10 1 9 -1 8 -1 0
1
              1               0               0              -0 
              0               1               0        -2.7e-14 
              0               0               1             -60 
2  8 1 9 1 10 -1 16 1 3 1 0
2  16 -1 10 1 9 -1 8 -1 0
2  3 -1 16 -1 10 1 9 -1 8 -1 0
2  8 1 9 1 10 -1 16 1 0
2  4 1 5 -1 0
2  10 -1 16 1 3 1 0
1
              1               0               0               0 
              0               1               0               0 
              0               0               1               0 
1
              1               0               0               0 
              0 0.707106781186547 0.707106781186548              15 
              0 -0.707106781186548 0.707106781186547              15 
2  23 1 24 1 5 -1 0
2  5 1 24 -1 23 -1 0
1
              1               0               0              -0 
              0               1               0 -156.572869942401 
              0               0               1 156.572869942401 
2  27 -1 5 1 24 -1 23 -1 0
2  24 -1 23 -1 0
2  4 1 24 -1 23 -1 0
2  10 -1 3 1 4 1 5 -1 0
2  8 1 9 1 0
2  5 1 4 -1 3 -1 10 1 9 -1 8 -1 0
2  5 1 4 -1 3 -1 16 -1 10 1 9 -1 8 -1 0
2  10 -1 16 1 3 1 4 1 5 -1 0
2  3 -1 16 -1 10 1 0
2  5 1 4 -1 3 -1 0
2  8 1 9 1 10 -1 3 1 4 1 5 -1 0
2  8 1 9 1 10 -1 16 1 3 1 4 1 5 -1 0
Curve2ds 28
1 80 -21.213203435596427 0 1 
1 -1.7800000000000001e-15 -30 0.70710678118654746 -0.70710678118654757 
1 -21.883744221879819 -40 1 0 
1 0 -21.21320343559643 1 0 
1 0 -30 1 0 
1 -21.883744221879819 40 0 -1 
1 0 -5.338656197958433 -0 1 
1 33.675000000000011 -41.225000000000001 -0.70710678118654746 -0.70710678118654757 
1 0 21.213203435596427 1 0 
1 8.1162557781201805 40 0 -1 
1 0 0 1 0 
1 0 -221.42747617222219 1 0 
2 0 0 0 1 -1 0 6.25
2 40 1.8839999999999998e-14 -1 -0 -0 1 6.2500000000000018
1 23.016255778120179 -40 0 1 
1 23.016255778120179 -35 -1 0 
1 18.116255778120181 -35 0 1 
1 0 0 1 0 
1 0 -60 1 0 
1 18.116255778120181 35 1 0 
1 23.016255778120186 35 0 1 
1 23.016255778120186 40 -1 0 
1 0 0 0 -1 
1 6.2831853071795862 0 0 -1 
3 34.999999999999993 -20.000000000000014 0 -1 1 0 8.8388347648318426 6.25
7 0 0  8 30 5  6.2831853071795862 -35.355339059327356  6.0868357663302239 -36.58252368963587  5.8904862254817303 -37.809708611315727  5.694136684631097 -38.964796941800159  5.4977871437852386 -39.975706250435906  5.3014376029316495 -40.779201848898083  5.1050880620844268 -41.329959209440858  4.908738521234052 -41.605339059327349  4.5651268247476677 -41.605339059327349  4.41786466911066 -41.450437484971509  4.270602513473861 -41.140638152157862  4.1233403578367174 -40.683095969547139  3.9760782021995098 -40.092162956095081  3.8288160465625891 -39.388488078090901  3.6815538909255383 -38.597438583525019  3.3133985018329843 -36.471618403735398  3.0925052683758381 -35.062749653345236  2.8716120349283969 -33.615349608298857  2.6507188014614016 -32.238097111665411  2.4298255680235101 -31.038905637251446  2.2089323345556053 -30.105939104560093  1.9880391010997913 -29.494769382094816  1.5462526341887264 -28.956092731519519  1.3253594007394653 -29.028585505278897  1.1044661672560991 -29.462929490633542  0.88357293385276847 -30.243592577142408  0.66267970035485035 -31.316245447917026  0.44178646691604939 -32.594172876990342  0.22089323345553336 -33.97475635023028  8.9000000000000007e-16 -35.355339059327356 
 1.5707963267948966 9 3.1415926535897896 7 4.3196898986859606 7 6.0868357663302213 7 7.8539816339744828 9
1 0 0 -0 -1 
1 70 0 -0 -1 
Curves 23
1 -40 0 0 -0 -4.4e-16 -1 
8 -2.8299999999999998e-15 42.426406871192853
1 -40 -1.155e-14 -30 -0 -0.70710678118654779 -0.70710678118654724 
1 -40 0 0 0 -1 0 
1 -40 -44.899999999999999 1.9940000000000001e-14 -0 -4.4e-16 -1 
1 40 0 0 -0 -4.4e-16 -1 
1 40 -1.243e-14 -30 -1 0 0 
1 40 0 0 -1 0 0 
8 -15.874547237637994 26.551859633554855
1 40 -11.225000000000017 -41.224999999999994 0 -0.70710678118654779 -0.70710678118654724 
1 40 -30.000000000000025 -59.999999999999986 -1 0 0 
2 0 42.42640687119286 0 0 0 1 1 0 -0 -0 1 0 6.25
1 -40 -44.899999999999999 0 1 0 0 
1 -35 -44.899999999999999 0 0 1 0 
1 -35 -40 0 1 0 0 
1 35 -40 0 0 -1 0 
1 35 -44.900000000000006 0 1 0 0 
1 40 -44.900000000000006 0 0 1 0 
1 -35 -44.899999999999999 1.9940000000000001e-14 -0 -4.4e-16 -1 
1 40 -44.900000000000006 1.9940000000000001e-14 -0 -4.4e-16 -1 
1 6.25 -15.000000000000048 -44.999999999999986 -0 -0.70710678118654702 0.70710678118654802 
3 0 -40.000000000000014 -19.999999999999979 0 -1 8.9000000000000007e-16 0 -8.9000000000000007e-16 -1 1 0 0 8.8388347648318426 6.25
1 -35 -40 1.7760000000000001e-14 -0 -4.4e-16 -1 
1 35 -40 1.7760000000000001e-14 -0 -4.4e-16 -1 
1 35 -44.900000000000006 1.9940000000000001e-14 -0 -4.4e-16 -1 
Polygon3D 0
PolygonOnTriangulations 60
2 1 2 
p 0.31473139127472 1 0 30 
2 4 3 
p 0.31473139127472 1 0 30 
2 2 3 
p 0.31473139127472 1 -3e-15 42.4264068711929 
2 3 4 
p 0.31473139127472 1 -3e-15 42.4264068711929 
2 1 5 
p 0.31473139127472 1 0 44.9 
2 1 2 
p 0.31473139127472 1 0 44.9 
2 3 4 
p 0.31473139127472 1 30 44.9 
2 1 2 
p 0.31473139127472 1 30 44.9 
2 5 4 
p 0.31473139127472 1 0 60 
2 1 2 
p 0.31473139127472 1 0 60 
2 1 2 
p 0.31473139127472 1 0 30 
2 1 2 
p 0.31473139127472 1 0 30 
2 2 3 
p 0.31473139127472 1 0 80 
2 1 3 
p 0.31473139127472 1 0 80 
2 1 4 
p 0.31473139127472 1 0 80 
2 8 1 
p 0.31473139127472 1 0 80 
2 1 2 
p 0.31473139127472 1 -15.874547237638 26.5518596335549 
2 2 5 
p 0.31473139127472 1 -15.874547237638 26.5518596335549 
2 2 4 
p 0.31473139127472 1 0 80 
2 8 1 
p 0.31473139127472 1 0 80 
27 1 2 3 4 5 6 7 8 9 10 11 12 13 14 15 16 17 18 19 20 21 22 23 24 25 26 27 
p 0.31473139127472 1 0 0.241660973353061 0.483321946706122 0.724982920059183 0.966643893412244 1.2083048667653 1.44996584011837 1.69162681347143 1.93328778682449 2.17494876017755 2.41660973353061 2.65827070688367 2.89993168023673 3.14159265358979 3.38325362694285 3.62491460029591 3.86657557364897 4.10823654700204 4.3498975203551 4.59155849370816 4.83321946706122 5.07488044041428 5.31654141376734 5.5582023871204 5.79986336047346 6.04152433382652 6.28318530717959 
27 5 6 7 8 9 10 11 12 13 14 15 16 17 18 19 20 21 22 23 24 25 26 27 28 29 30 5 
p 0.31473139127472 1 0 0.241660973353061 0.483321946706122 0.724982920059183 0.966643893412244 1.2083048667653 1.44996584011837 1.69162681347143 1.93328778682449 2.17494876017755 2.41660973353061 2.65827070688367 2.89993168023673 3.14159265358979 3.38325362694285 3.62491460029591 3.86657557364897 4.10823654700204 4.3498975203551 4.59155849370816 4.83321946706122 5.07488044041428 5.31654141376734 5.5582023871204 5.79986336047346 6.04152433382652 6.28318530717959 
2 2 3 
p 0.31473139127472 1 0 5 
2 1 4 
p 0.31473139127472 1 0 5 
2 2 3 
p 0.31473139127472 1 0 5 
2 2 3 
p 0.31473139127472 1 0 5 
2 3 4 
p 0.31473139127472 1 0 4.9 
2 1 4 
p 0.31473139127472 1 0 4.9 
2 3 4 
p 0.31473139127472 1 0 4.9 
2 2 3 
p 0.31473139127472 1 0 4.9 
2 4 5 
p 0.31473139127472 1 0 70 
2 1 4 
p 0.31473139127472 1 0 70 
2 4 5 
p 0.31473139127472 1 0 70 
2 2 3 
p 0.31473139127472 1 0 70 
2 5 6 
p 0.31473139127472 1 0 4.90000000000001 
2 1 4 
p 0.31473139127472 1 0 4.90000000000001 
2 5 6 
p 0.31473139127472 1 0 4.90000000000001 
2 2 3 
p 0.31473139127472 1 0 4.90000000000001 
2 6 7 
p 0.31473139127472 1 0 5 
2 1 4 
p 0.31473139127472 1 0 5 
2 6 7 
p 0.31473139127472 1 0 5 
2 2 3 
p 0.31473139127472 1 0 5 
2 7 8 
p 0.31473139127472 1 0 44.9 
2 3 1 
p 0.31473139127472 1 0 44.9 
2 7 8 
p 0.31473139127472 1 0 14.9 
2 4 5 
p 0.31473139127472 1 0 14.9 
2 4 3 
p 0.31473139127472 1 0 60 
2 1 2 
p 0.31473139127472 1 0 60 
2 3 4 
p 0.31473139127472 1 0 60 
2 4 3 
p 0.31473139127472 1 0 60 
2 1 28 
p 0.31473139127472 1 0 35.3553390593273 
2 27 29 
p 0.31473139127472 1 0 35.3553390593273 
33 29 30 31 32 33 34 35 36 37 38 39 40 41 42 43 44 45 46 47 48 49 50 51 52 53 54 55 56 57 58 59 60 28 
p 0.31473139127472 1 1.5707963267949 1.89797692799044 2.19243946906642 2.45745575603481 2.6721189484792 2.87088116370549 3.04976715740915 3.21076455174245 3.37176194607574 3.53275934040904 3.69375673474233 3.85475412907563 4.01575152340892 4.23041471585332 4.47191080735326 4.71340689885321 4.95490299035315 5.1963990818531 5.43789517335304 5.67939126485298 5.87500309896794 6.0561251675929 6.21913502935536 6.36584390494158 6.51255278052779 6.65926165611401 6.80597053170023 6.95267940728645 7.09938828287266 7.29500011698762 7.51506343036694 7.68452253217071 7.85398163397448 
33 5 6 7 8 9 10 11 12 13 14 15 16 17 18 19 20 21 22 23 24 25 26 27 28 29 30 31 32 33 34 35 36 5 
p 0.31473139127472 1 1.5707963267949 1.89797692799044 2.19243946906642 2.45745575603481 2.6721189484792 2.87088116370549 3.04976715740915 3.21076455174245 3.37176194607574 3.53275934040904 3.69375673474233 3.85475412907563 4.01575152340892 4.23041471585332 4.47191080735326 4.71340689885321 4.95490299035315 5.1963990818531 5.43789517335304 5.67939126485298 5.87500309896794 6.0561251675929 6.21913502935536 6.36584390494158 6.51255278052779 6.65926165611401 6.80597053170023 6.95267940728645 7.09938828287266 7.29500011698762 7.51506343036694 7.68452253217071 7.85398163397448 
2 4 3 
p 0.31473139127472 1 0 60 
2 1 2 
p 0.31473139127472 1 0 60 
2 4 3 
p 0.31473139127472 1 0 60 
2 1 2 
p 0.31473139127472 1 0 60 
2 4 3 
p 0.31473139127472 1 0 60 
2 1 2 
p 0.31473139127472 1 0 60 
Surfaces 12
1 -40 0 0 -1 0 0 0 -1 4.4e-16 0 4.4e-16 1 
1 40 -15.000000000000018 -44.999999999999993 0 -0.70710678118654724 0.70710678118654779 -1 0 0 -0 -0.70710678118654779 -0.70710678118654724 
1 8.8e-16 -4.8600000000000001e-15 -21.883744221879819 -0 -1 2.2e-16 0 -2.2e-16 -1 1 0 0 
1 40 0 0 0 1 -4.4e-16 -1 0 0 0 4.4e-16 1 
1 40 -44.900000000000006 1.9940000000000001e-14 1 -0 0 0 1 -4.4e-16 0 4.4e-16 1 
2 0 -15.000000000000048 -44.999999999999986 0 0.70710678118654691 -0.70710678118654813 1 0 0 0 -0.70710678118654813 -0.70710678118654691 6.25
1 0 44.999999999999986 -15.000000000000041 3.4e-16 0.70710678118654813 0.70710678118654691 -2.4651903288156619e-32 -0.70710678118654691 0.70710678118654813 1 -2.4041630560342637e-16 -2.4041630560342593e-16 
1 -35 -40 1.7760000000000001e-14 0 -1 4.4e-16 1 0 0 -0 4.4e-16 1 
1 -40 -44.899999999999999 1.9940000000000001e-14 0 -1 4.4e-16 1 0 0 -0 4.4e-16 1 
1 -35 -44.899999999999999 1.9940000000000001e-14 1 -0 0 0 1 -4.4e-16 0 4.4e-16 1 
1 35 -40 1.7760000000000001e-14 -1 0 0 0 -1 4.4e-16 0 4.4e-16 1 
1 35 -44.900000000000006 1.9940000000000001e-14 0 -1 4.4e-16 1 0 0 -0 4.4e-16 1 
Triangulations 12
5 3 1 0.31473139127472
-40 0 0 -40 -9e-15 -30 -40 -30 -60 -40 -44.9 -60 -40 -44.9 0 0 0 -3.90132034355964e-15 -30 30 -60 44.9 -60 44.9 -2.1316282072803e-14 5 1 2 5 2 3 5 3 4 
4 2 1 0.31473139127472
40 0 0 40 -9e-15 -30 -40 -9e-15 -30 -40 0 0 0 0 0 -30 80 -30 80 0 3 1 2 4 1 3 
30 30 1 0.31473139127472
40 -9e-15 -30 40 -30 -60 -40 -9e-15 -30 -40 -30 -60 6.25 -15 -45 6.06838635891283 -16.0576358066369 -46.0576358066368 5.53410016033256 -17.0538056645417 -47.0538056645417 4.67819217606938 -17.9306158025033 -47.9306158025032 3.55040466706972 -18.6371092023783 -48.6371092023783 2.21628054401585 -19.1322270357652 -49.1322270357651 0.75335425159577 -19.3871948538675 -49.3871948538675 -0.753354251595768 -19.3871948538675 -49.3871948538675 -2.21628054401585 -19.1322270357652 -49.1322270357651 -3.55040466706972 -18.6371092023783 -48.6371092023783 -4.67819217606938 -17.9306158025033 -47.9306158025032 -5.53410016033256 -17.0538056645417 -47.0538056645417 -6.06838635891282 -16.0576358066369 -46.0576358066368 -6.25 -15 -45 -6.06838635891283 -13.9423641933632 -43.9423641933631 -5.53410016033257 -12.9461943354583 -42.9461943354583 -4.67819217606939 -12.0693841974968 -42.0693841974968 -3.55040466706973 -11.3628907976218 -41.3628907976217 -2.21628054401586 -10.8677729642349 -40.8677729642348 -0.753354251595783 -10.6128051461326 -40.6128051461325 0.753354251595754 -10.6128051461326 -40.6128051461325 2.21628054401583 -10.8677729642349 -40.8677729642348 3.55040466706971 -11.3628907976217 -41.3628907976217 4.67819217606937 -12.0693841974968 -42.0693841974968 5.53410016033255 -12.9461943354583 -42.9461943354583 6.06838635891282 -13.9423641933632 -43.9423641933631 0 -21.2132034355964 0 21.2132034355964 80 -21.2132034355964 80 21.2132034355964 33.75 1.77635683940025e-14 33.9316136410872 1.49572290179725 34.4658998396674 2.90451982527357 35.3218078239306 4.14451661400499 36.4495953329303 5.14364916183537 37.7837194559841 5.84385151678386 39.2466457484042 6.20443046311286 40.7533542515958 6.20443046311286 42.2162805440158 5.84385151678386 43.5504046670697 5.14364916183537 44.6781921760694 4.14451661400499 45.5341001603326 2.90451982527358 46.0683863589128 1.49572290179726 46.25 2.48689957516035e-14 46.0683863589128 -1.49572290179721 45.5341001603326 -2.90451982527353 44.6781921760694 -4.14451661400495 43.5504046670697 -5.14364916183533 42.2162805440159 -5.84385151678382 40.7533542515958 -6.20443046311282 39.2466457484042 -6.20443046311282 37.7837194559842 -5.84385151678383 36.4495953329303 -5.14364916183535 35.3218078239306 -4.14451661400497 34.4658998396674 -2.90451982527355 33.9316136410872 -1.49572290179724 27 28 1 29 1 28 26 27 1 30 1 29 25 26 1 5 2 1 5 1 30 6 2 5 7 2 6 8 2 7 9 2 8 10 2 9 11 2 10 3 18 19 3 19 20 3 20 21 3 21 22 3 22 23 3 23 24 3 24 25 3 25 1 4 12 13 4 13 14 4 14 15 4 15 16 4 16 17 4 17 18 4 18 3 4 2 11 4 11 12 
8 6 1 0.31473139127472
-40 0 0 -40 0 -44.9 -35 0 -44.9 -35 0 -40 35 0 -40 35 0 -44.9 40 0 -44.9 40 0 0 -21.8837442218798 -40 23.0162557781202 -40 23.0162557781202 -35 18.1162557781202 -35 18.1162557781202 35 23.0162557781202 35 23.0162557781202 40 -21.8837442218798 40 4 1 2 3 4 2 5 8 1 5 1 4 7 5 6 7 8 5 
8 6 1 0.31473139127472
-40 -1.4210854715202e-14 -30 -40 0 -44.9 -35 0 -44.9 -35 0 -40 35 0 -40 35 0 -44.9 40 0 -44.9 40 -1.4210854715202e-14 -30 8.11625577812018 -40 23.0162557781202 -40 23.0162557781202 -35 18.1162557781202 -35 18.1162557781202 35 23.0162557781202 35 23.0162557781202 40 8.11625577812018 40 4 1 2 3 4 2 5 8 1 5 1 4 7 5 6 7 8 5 
4 2 1 0.31473139127472
-40 -44.9 0 -40 -44.9 -60 -35 -44.9 -60 -35 -44.9 0 0 -2.1316282072803e-14 0 -60 5 -60 5 -2.1316282072803e-14 1 2 3 4 1 3 
5 3 1 0.31473139127472
40 0 0 40 -9e-15 -30 40 -44.9 0 40 -44.9 -60 40 -30 -60 44.9 0 44.9 -30 0 0 -2.021709430404e-15 -60 14.9 -60 3 4 5 2 3 5 1 3 2 
60 58 1 0.31473139127472
6.25 -15 -45 6.06838635891283 -16.0576358066369 -46.0576358066368 5.53410016033256 -17.0538056645417 -47.0538056645417 4.67819217606938 -17.9306158025033 -47.9306158025032 3.55040466706972 -18.6371092023783 -48.6371092023783 2.21628054401585 -19.1322270357652 -49.1322270357651 0.75335425159577 -19.3871948538675 -49.3871948538675 -0.753354251595768 -19.3871948538675 -49.3871948538675 -2.21628054401585 -19.1322270357652 -49.1322270357651 -3.55040466706972 -18.6371092023783 -48.6371092023783 -4.67819217606938 -17.9306158025033 -47.9306158025032 -5.53410016033256 -17.0538056645417 -47.0538056645417 -6.06838635891282 -16.0576358066369 -46.0576358066368 -6.25 -15 -45 -6.06838635891283 -13.9423641933632 -43.9423641933631 -5.53410016033257 -12.9461943354583 -42.9461943354583 -4.67819217606939 -12.0693841974968 -42.0693841974968 -3.55040466706973 -11.3628907976218 -41.3628907976217 -2.21628054401586 -10.8677729642349 -40.8677729642348 -0.753354251595783 -10.6128051461326 -40.6128051461325 0.753354251595754 -10.6128051461326 -40.6128051461325 2.21628054401583 -10.8677729642349 -40.8677729642348 3.55040466706971 -11.3628907976217 -41.3628907976217 4.67819217606937 -12.0693841974968 -42.0693841974968 5.53410016033255 -12.9461943354583 -42.9461943354583 6.06838635891282 -13.9423641933632 -43.9423641933631 6.25 -15 -45 6.25 -40 -20 6.25 -40 -20 5.91845117998442 -40 -17.1594241322784 5.08076646848078 -40 -14.8525128280371 3.9500273310801 -40 -13.1502140057195 2.82760621778404 -40 -12.1174695589361 1.67135676476514 -40 -11.4830678569248 0.573103164632544 -40 -11.1984032400151 -0.431979685150433 -40 -11.1823026189807 -1.42588971669991 -40 -11.3942648755833 -2.38292022087031 -40 -11.8288077710817 -3.27831834877875 -40 -12.4746921918023 -4.0889253249697 -40 -13.3152128400642 -4.79377543111168 -40 -14.3286303036973 -5.53800950309606 -40 -15.9029398970438 -6.0701512551435 -40 -17.8948806496164 -6.2499967620065 -40 -20.0089972115935 -6.06710824477017 -40 -22.1225915981374 -5.53210009098459 -40 -24.1129961301534 -4.67602282242415 -40 -25.8646927565165 -3.54856100123977 -40 -27.2760174299516 -2.48088459766467 -40 -28.1126705360282 -1.40696311993117 -40 -28.6119631651736 -0.400040581811474 -40 -28.8207105760141 0.516028145054912 -40 -28.8086565324697 1.42101005016064 -40 -28.6073492362448 2.29546167257305 -40 -28.2211137578491 3.1205954919429 -40 -27.6582483343994 3.87868357681584 -40 -26.9308460826856 4.55343846776469 -40 -26.0545351795626 5.29872297254509 -40 -24.68743743643 5.8944679934135 -40 -22.9386211306066 6.1604758322241 -40 -21.4906626181553 0 0 0.241660973353061 0 0.483321946706122 0 0.724982920059183 0 0.966643893412244 0 1.2083048667653 0 1.44996584011837 0 1.69162681347143 0 1.93328778682449 0 2.17494876017755 0 2.41660973353061 0 2.65827070688367 0 2.89993168023673 0 3.14159265358979 0 3.38325362694285 0 3.62491460029591 0 3.86657557364897 0 4.10823654700204 0 4.3498975203551 0 4.59155849370816 0 4.83321946706122 0 5.07488044041428 0 5.31654141376734 0 5.5582023871204 0 5.79986336047346 0 6.04152433382652 0 6.28318530717959 0 8.9e-16 -35.3553390593274 6.28318530717959 -35.3553390593273 5.95600470598439 -37.3639295038186 5.66154216490875 -38.9951621617582 5.39652587794033 -40.1988691710344 5.1818626854957 -40.9291297868409 4.98310047026922 -41.3777195428838 4.80421447656539 -41.5790078063606 4.64321708223203 -41.5903926504346 4.48221968789878 -41.4405127429824 4.32122229356552 -41.1332445216659 4.16022489923222 -40.6765351959091 3.99922750489889 -40.0821973826574 3.83823011056556 -39.365603071991 3.62356691812116 -38.2523980161264 3.38207082662116 -36.8438832033552 3.14057473512178 -35.3489771181161 2.89907864362288 -33.8544400950295 2.65758255212403 -32.4470116025524 2.41608646062462 -31.2083750948888 2.17459036912368 -30.2104177489302 1.9789785350072 -29.6188147123224 1.79785646638159 -29.2657615117752 1.63484660461944 -29.1181548149461 1.48813772903308 -29.1266782728136 1.34142885344656 -29.2690240162479 1.19471997786071 -29.542133788303 1.04801110227551 -29.9401397733631 0.901302226690277 -30.454490804012 0.754593351104366 -31.0741361383181 0.55898151698873 -32.0408202458301 0.338918203608447 -33.2774201656022 0.169459101804234 -34.3012813999854 1 28 60 2 60 59 2 1 60 3 59 58 3 2 59 4 57 56 4 58 57 4 3 58 5 56 55 5 4 56 6 54 53 6 55 54 6 5 55 7 52 51 7 53 52 7 6 53 8 51 50 8 7 51 9 50 49 9 8 50 10 9 49 10 49 48 11 10 48 11 48 47 12 11 47 12 47 46 13 12 46 13 46 45 14 13 45 14 45 44 15 14 44 15 44 43 16 15 43 16 42 41 16 43 42 17 16 41 17 41 40 18 40 39 18 17 40 19 18 39 19 38 37 19 39 38 20 37 36 20 19 37 21 35 34 21 36 35 21 20 36 22 34 33 22 21 34 23 33 32 23 22 33 24 32 31 24 23 32 25 31 30 25 24 31 26 30 29 26 25 30 27 26 29 
4 2 1 0.31473139127472
-35 -44.9 0 -35 -44.9 -60 -35 -40 -60 -35 -40 0 8.67746995743113e-30 -2.1316282072803e-14 -2.021709430404e-15 -60 4.9 -60 4.9 -2.1316282072803e-14 1 2 3 4 1 3 
36 36 1 0.31473139127472
-35 -40 0 -35 -40 -60 35 -40 -60 35 -40 0 6.25 -40 -20 5.91845117998442 -40 -17.1594241322784 5.08076646848078 -40 -14.8525128280371 3.9500273310801 -40 -13.1502140057195 2.82760621778404 -40 -12.1174695589361 1.67135676476514 -40 -11.4830678569248 0.573103164632544 -40 -11.1984032400151 -0.431979685150433 -40 -11.1823026189807 -1.42588971669991 -40 -11.3942648755833 -2.38292022087031 -40 -11.8288077710817 -3.27831834877875 -40 -12.4746921918023 -4.0889253249697 -40 -13.3152128400642 -4.79377543111168 -40 -14.3286303036973 -5.53800950309606 -40 -15.9029398970438 -6.0701512551435 -40 -17.8948806496164 -6.2499967620065 -40 -20.0089972115935 -6.06710824477017 -40 -22.1225915981374 -5.53210009098459 -40 -24.1129961301534 -4.67602282242415 -40 -25.8646927565165 -3.54856100123977 -40 -27.2760174299516 -2.48088459766467 -40 -28.1126705360282 -1.40696311993117 -40 -28.6119631651736 -0.400040581811474 -40 -28.8207105760141 0.516028145054912 -40 -28.8086565324697 1.42101005016064 -40 -28.6073492362448 2.29546167257305 -40 -28.2211137578491 3.1205954919429 -40 -27.6582483343994 3.87868357681584 -40 -26.9308460826856 4.55343846776469 -40 -26.0545351795626 5.29872297254509 -40 -24.68743743643 5.8944679934135 -40 -22.9386211306066 6.1604758322241 -40 -21.4906626181553 0 0 0 -60 70 -60 70 0 41.25 -20 40.9184511799844 -17.1594241322784 40.0807664684808 -14.8525128280371 38.9500273310801 -13.1502140057196 37.827606217784 -12.1174695589362 36.6713567647651 -11.4830678569248 35.5731031646325 -11.1984032400151 34.5680203148496 -11.1823026189807 33.5741102833001 -11.3942648755833 32.6170797791297 -11.8288077710817 31.7216816512212 -12.4746921918023 30.9110746750303 -13.3152128400642 30.2062245688883 -14.3286303036974 29.4619904969039 -15.9029398970438 28.9298487448565 -17.8948806496164 28.7500032379935 -20.0089972115936 28.9328917552298 -22.1225915981375 29.4678999090154 -24.1129961301534 30.3239771775758 -25.8646927565165 31.4514389987602 -27.2760174299517 32.5191154023353 -28.1126705360282 33.5930368800688 -28.6119631651736 34.5999594181885 -28.8207105760142 35.5160281450549 -28.8086565324698 36.4210100501606 -28.6073492362449 37.295461672573 -28.2211137578491 38.1205954919429 -27.6582483343994 38.8786835768158 -26.9308460826856 39.5534384677647 -26.0545351795626 40.2987229725451 -24.6874374364301 40.8944679934135 -22.9386211306066 41.1604758322241 -21.4906626181553 25 24 2 23 2 24 26 25 2 22 2 23 27 26 2 21 1 2 21 2 22 20 1 21 3 28 27 3 29 28 3 30 29 3 27 2 31 30 3 19 1 20 32 31 3 33 32 3 18 1 19 34 33 3 17 1 18 16 1 17 35 34 3 15 1 16 14 1 15 13 1 14 12 1 13 4 6 5 4 7 6 4 8 7 4 9 8 4 10 9 4 11 10 4 36 35 4 5 36 4 35 3 4 1 12 4 12 11 
4 2 1 0.31473139127472
35 -40 0 35 -40 -60 35 -44.9 -60 35 -44.9 0 -7.8144e-30 -1.4210854715202e-14 2.021709430404e-15 -60 4.90000000000001 -60 4.90000000000001 -2.1316282072803e-14 1 2 3 4 1 3 
4 2 1 0.31473139127472
35 -44.9 0 35 -44.9 -60 40 -44.9 -60 40 -44.9 0 0 -2.1316282072803e-14 0 -60 5 -60 5 -2.1316282072803e-14 1 2 3 4 1 3 

TShapes 69
Ve
0.0001
-40 -9e-15 -30
0 0

0101101
*
Ve
1e-07
-40 0 0
0 0

0101101
*
Ed
 1e-07 1 1 0
1  1 0 0 30
6  1 1 0
6  2 2 0
0

0101000
-69 7 +68 11 *
Ve
0.0001
-40 -30 -60
0 0

0101101
*
Ed
 1e-07 1 1 0
1  2 0 -3e-15 42.4264068711929
2  1 2 0 -3e-15 42.4264068711929
2  2 1 3 -3e-15 42.4264068711929
6  3 1 3
6  4 3 12
0

0101000
+69 0 -66 0 *
Ve
1e-07
-40 -44.9 0
0 0

0101101
*
Ed
 1e-07 1 1 0
1  3 0 0 44.9
2  3 3 14 0 44.9
6  5 1 15
6  6 4 14
0

0101000
+68 0 -64 0 *
Ed
 1e-07 1 1 0
1  3 0 30 44.9
6  7 1 18
6  8 5 14
0

0101000
+66 19 -64 0 *
Ed
 1e-07 1 1 0
1  4 0 0 60
6  9 1 0
6  10 6 0
0

0101000
+64 11 -64 20 *
Wi

0101100
+67 3 +65 0 -63 13 +62 17 -61 3 *
Fa
0  1e-07 1 0
2  1
0111000
+60 7 *
Ve
0.0001
40 -9e-15 -30
0 0

0101101
*
Ve
1e-07
40 0 0
0 0

0101101
*
Ed
 1e-07 1 1 0
1  5 0 0 30
6  11 2 0
6  12 7 0
0

0101000
-58 7 +57 11 *
Ed
 1e-07 1 1 0
1  6 0 0 80
2  4 2 0 0 80
2  5 4 3 0 80
6  13 2 3
6  14 3 12
0

0101000
+58 0 -69 0 *
Ed
 1e-07 1 1 0
1  7 0 0 80
2  6 3 14 0 80
6  15 2 15
6  16 4 14
0

0101000
+57 0 -68 0 *
Wi

0101100
+56 3 +55 0 -54 13 -67 3 *
Fa
0  1e-07 4 0
2  2
0111000
+53 7 *
Ve
0.0001
40 -30 -60
0 0

0101101
*
Ed
 1e-07 1 1 0
1  8 0 -15.874547237638 26.5518596335549
2  7 2 0 -15.874547237638 26.5518596335549
2  8 5 3 -15.874547237638 26.5518596335549
6  17 3 12
6  18 7 3
0

0101000
+58 0 -51 0 *
Ed
 1e-07 1 1 0
1  9 0 0 80
2  9 2 0 0 80
2  10 3 22 0 80
6  19 3 12
6  20 5 22
0

0101000
+51 0 -66 0 *
Wi

0101100
-50 21 +55 21 -49 21 +65 21 *
Ve
1.00000008e-07
6.25 42.4264068711929 0
0 0

0101101
*
Ed
 1.00000008e-07 1 1 0
1  10 0 0 6.28318530717959
2  11 6 26 0 6.28318530717959
2  12 6 28 0 6.28318530717959
2  13 7 29 0 6.28318530717959
2  14 2 30 0 6.28318530717959
6  21 8 26
6  22 3 26
0

0101000
+47 0 -47 0 *
Wi

0101100
+46 25 *
Fa
0  1e-07 2 21
2  3
0111000
+48 0 +45 0 *
Ve
1e-07
-35 -44.9 0
0 0

0101101
*
Ed
 1e-07 1 1 0
1  11 0 0 5
2  15 3 14 0 5
6  23 4 14
6  24 6 15
6  25 5 14
6  26 6 18
0

0101000
+64 0 -43 0 *
Ve
1e-07
-35 -40 0
0 0

0101101
*
Ed
 1e-07 1 1 0
1  12 0 0 4.9
2  16 3 14 0 4.9
6  27 4 14
6  28 9 15
6  29 5 14
6  30 9 18
0

0101000
+43 0 -41 0 *
Ve
1e-07
35 -40 0
0 0

0101101
*
Ed
 1e-07 1 1 0
1  13 0 0 70
2  17 3 14 0 70
2  18 8 15 0 70
2  19 8 18 0 70
6  31 4 14
6  32 10 33
6  33 5 14
6  34 10 34
0

0101000
+41 0 -39 0 *
Ve
1e-07
35 -44.9 0
0 0

0101101
*
Ed
 1e-07 1 1 0
1  14 0 0 4.90000000000001
2  20 3 14 0 4.90000000000001
6  35 4 14
6  36 11 15
6  37 5 14
6  38 11 18
0

0101000
+39 0 -37 0 *
Ve
1e-07
40 -44.9 0
0 0

0101101
*
Ed
 1e-07 1 1 0
1  15 0 0 5
2  21 3 14 0 5
6  39 4 14
6  40 12 15
6  41 5 14
6  42 12 18
0

0101000
+37 0 -35 0 *
Ed
 1e-07 1 1 0
1  16 0 0 44.9
2  22 3 14 0 44.9
6  43 4 14
6  44 7 15
0

0101000
+35 0 -57 0 *
Wi

0101100
+63 0 +42 0 +40 0 +38 0 +36 0 +34 0 +33 0 +54 0 *
Fa
0  1e-07 3 0
2  4
0111000
+32 32 *
Ed
 1e-07 1 1 0
1  16 0 0 14.9
6  45 5 14
6  46 7 18
0

0101000
-51 19 +35 0 *
Wi

0101100
+62 17 +49 0 +42 17 +30 17 +40 17 +34 17 +38 17 +36 17 *
Fa
0  1e-07 3 0
2  5
0111000
+29 36 *
Ed
 1e-07 1 1 0
1  17 0 0 60
6  47 6 0
6  48 9 0
0

0101000
+43 11 -43 20 *
Wi

0101100
+61 0 -27 0 -42 11 +42 20 *
Fa
0  1e-07 9 0
2  6
0111000
+26 0 *
Ed
 1e-07 1 1 0
1  18 0 0 60
6  49 7 0
6  50 12 0
0

0101000
+35 11 -35 20 *
Wi

0101100
-56 3 -50 0 -33 13 +30 17 +24 3 *
Fa
0  1e-07 5 0
2  7
0111000
+23 7 *
Ve
1.00000007e-07
6.25 -40 -20
0 0

0101101
*
Ed
 1e-07 1 1 0
1  19 0 0 35.3553390593273
3  23 24CN 6 0 0 35.3553390593273
7  51 52 8 0
0

0101000
+47 25 -21 0 *
Ed
 1e-07 1 1 0
1  20 0 1.5707963267949 7.85398163397448
2  25 8 6 1.5707963267949 7.85398163397448
2  26 6 0 1.5707963267949 7.85398163397448
6  53 8 0
6  54 10 0
0

0101000
+21 0 -21 0 *
Wi

0101100
-46 25 -20 0 -19 0 +20 0 *
Fa
0  1e-07 6 0
2  8
0111000
+18 0 *
Ed
 1e-07 1 1 0
1  21 0 0 60
2  27 8 0 0 60
6  55 9 0
6  56 10 37
0

0101000
+41 11 -41 20 *
Wi

0101100
+27 0 -16 0 -40 11 +40 20 *
Fa
0  1e-07 10 0
2  9
0111000
+15 0 *
Ed
 1e-07 1 1 0
1  22 0 0 60
2  28 8 0 0 60
6  57 10 37
6  58 11 0
0

0101000
+39 11 -39 20 *
Wi

0101100
+16 6 -38 38 +38 39 -13 6 *
Wi

0101100
-19 0 *
Fa
0  1e-07 8 6
2  10
0111000
+12 0 +11 0 *
Ed
 1e-07 1 1 0
1  23 0 0 60
6  59 11 0
6  60 12 0
0

0101000
+37 11 -37 20 *
Wi

0101100
+13 0 -9 0 -36 11 +36 20 *
Fa
0  1e-07 11 0
2  11
0111000
+8 0 *
Wi

0101100
+9 0 -24 0 -34 11 +34 20 *
Fa
0  1e-07 12 0
2  12
0111000
+6 0 *
Sh

0101100
+59 6 +52 6 -44 0 +31 31 -28 35 +25 6 +22 6 -17 0 +14 6 +10 0 
+7 6 +5 6 *
So

0100000
+4 0 *
Co

0100000
+3 2 *
Co

1100000
+2 1 *

+1 0 