DBRep_DrawableShape

CASCADE Topology V1, (c) Matra-Datavision
Locations 38
1
-2.22044604925031e-16               1               0               0 
             -1 -2.22044604925031e-16               0               0 
              0               0               1               0 
1
              1               0               0               0 
              0               0              -1               0 
              0               1               0               0 
1
              1               0               0               0 
              0              -0              -1               0 
              0               1              -0               0 
2  2 1 3 -1 0
1
              1               0               0               0 
              0               0              -1               0 
              0               1               0               0 
2  5 -1 3 1 2 -1 0
2  3 1 2 -1 0
1
              1               0               0               0 
              0               1               0               0 
              0               0               1               0 
1
              1               0               0               0 
              0               0              -1               0 
              0               1               0               0 
1
              1               0               0               0 
              0              -0              -1               0 
              0               1              -0               0 
2  8 1 9 1 10 -1 0
2  10 1 9 -1 8 -1 0
2  3 1 2 -1 10 1 9 -1 8 -1 0
2  5 -1 3 1 2 -1 10 1 9 -1 8 -1 0
1
              1               0               0               0 
              0               1               0         1.8e-14 
              0               0               1              40 
2  8 1 9 1 10 -1 15 1 0
2  15 -1 10 1 9 -1 8 -1 0
2  9 -1 8 -1 0
2  5 -1 3 1 2 -1 15 -1 10 1 9 -1 8 -1 0
2  8 1 9 1 10 -1 2 1 3 -1 0
2  8 1 9 1 10 -1 15 1 2 1 3 -1 0
2  3 1 2 -1 15 -1 10 1 9 -1 8 -1 0
2  10 -1 2 1 3 -1 0
1
              1               0               0               0 
              0               1               0               0 
              0               0               1               0 
1
              1               0               0               0 
              0          -1e-15               1              -0 
              0              -1          -1e-15               0 
2  24 1 25 1 3 -1 0
2  3 1 25 -1 24 -1 0
2  5 -1 3 1 25 -1 24 -1 0
2  10 -1 15 1 2 1 3 -1 0
2  8 1 9 1 0
2  5 -1 0
1
              1               0               0               0 
              0               1               0       -1.51e-13 
              0               0               1            -160 
2  24 1 25 1 3 -1 32 1 0
2  32 -1 3 1 25 -1 24 -1 0
2  25 -1 24 -1 0
2  5 -1 32 -1 3 1 25 -1 24 -1 0
2  3 -1 32 1 0
2  24 1 25 1 0
Curve2ds 0
Curves 55
1 -39.999999999999993 -2.3310000000000001e-14 -34.999999999999993 0 -1 6.7000000000000004e-16 
1 -34.999999999999993 -2.3310000000000001e-14 -34.999999999999993 0 -1 6.7000000000000004e-16 
1 -39.999999999999993 -7.7699999999999996e-15 -34.999999999999993 1 0 0 
1 -39.999999999999993 -40 -74.999999999999986 1 0 0 
1 -39.999999999999993 0 0 0 -1 6.7000000000000004e-16 
1 -39.999999999999993 0 0 0 -2.2e-16 -1 
1 -39.999999999999993 -39.999999999999993 -39.999999999999993 0 -2.2e-16 -1 
1 -34.999999999999993 -2.9980000000000002e-14 -44.999999999999993 0 -1 6.7000000000000004e-16 
1 -34.999999999999993 -7.7699999999999996e-15 -34.999999999999993 0 -2.2e-16 -1 
1 -34.999999999999993 -7.7699999999999996e-15 -34.999999999999993 0 -2.2e-16 -1 
1 -34.999999999999993 -40 -74.999999999999986 0 -2.2e-16 -1 
1 39.999999999999993 0 0 -1 0 0 
1 39.999999999999993 -7.7699999999999996e-15 -34.999999999999993 0 2.2e-16 1 
1 34.999999999999993 -7.7699999999999996e-15 -34.999999999999993 1 0 0 
1 34.999999999999993 -9.9900000000000002e-15 -44.999999999999993 0 2.2e-16 1 
1 -34.999999999999986 8.8800000000000007e-15 39.999999999999986 1 0 0 
1 -34.999999999999993 -40 -84.999999999999986 -1 0 0 
1 -39.999999999999993 -40 -84.999999999999986 0 -2.2e-16 -1 
1 -39.999999999999993 -40.000000000000007 -119.99999999999997 1 0 0 
1 39.999999999999993 -40.000000000000007 -119.99999999999997 0 2.2e-16 1 
1 39.999999999999993 -40 -84.999999999999986 -1 0 0 
1 34.999999999999993 -40 -84.999999999999986 0 2.2e-16 1 
1 34.999999999999993 -40 -74.999999999999986 1 0 0 
1 39.999999999999993 -40 -74.999999999999986 0 2.2e-16 1 
1 39.999999999999993 -39.999999999999993 -39.999999999999993 -1 0 0 
1 39.999999999999993 0 0 0 -1 6.7000000000000004e-16 
1 -39.999999999999993 -2.9980000000000002e-14 -44.999999999999993 0 -1 6.7000000000000004e-16 
1 -34.999999999999993 -9.9900000000000002e-15 -44.999999999999993 -1 0 0 
1 -34.999999999999986 -4.4409999999999997e-14 -39.999999999999986 0 1 -1.1700000000000001e-15 
1 -34.999999999999986 -4.9960000000000002e-14 -44.999999999999986 0 1 -1.1700000000000001e-15 
1 -34.999999999999986 -159.99999999999997 -119.99999999999996 0 2.2e-16 1 
1 39.999999999999993 -2.3310000000000001e-14 -34.999999999999993 0 -1 6.7000000000000004e-16 
1 34.999999999999993 -2.3310000000000001e-14 -34.999999999999993 0 -1 6.7000000000000004e-16 
1 34.999999999999993 -2.9980000000000002e-14 -44.999999999999993 0 -1 6.7000000000000004e-16 
1 34.999999999999993 -9.9900000000000002e-15 -44.999999999999993 0 2.2e-16 1 
1 35 -4.4409999999999997e-14 -39.999999999999986 0 1 -1.1700000000000001e-15 
1 -34.999999999999986 -159.99999999999997 -119.99999999999996 1 0 0 
1 -39.999999999999993 -5.3289999999999999e-14 -79.999999999999986 0 -1 6.7000000000000004e-16 
1 -39.999999999999993 -9.9900000000000002e-15 -44.999999999999993 0 -2.2e-16 -1 
1 39.999999999999993 -5.3289999999999999e-14 -79.999999999999986 0 -1 6.7000000000000004e-16 
1 -39.999999999999993 -1.7760000000000001e-14 -79.999999999999986 1 0 0 
1 39.999999999999993 -2.9980000000000002e-14 -44.999999999999993 0 -1 6.7000000000000004e-16 
1 39.999999999999993 -1.7760000000000001e-14 -79.999999999999986 0 2.2e-16 1 
1 39.999999999999993 -9.9900000000000002e-15 -44.999999999999993 -1 0 0 
1 -39.999999999999986 -4.9960000000000002e-14 -44.999999999999986 0 1 -1.1700000000000001e-15 
1 -34.999999999999986 -159.99999999999997 -114.99999999999996 -1 0 0 
1 34.999999999999986 -159.99999999999997 -114.99999999999996 2.84e-15 -2.2e-16 -1 
1 39.999999999999986 -159.99999999999997 -114.99999999999996 -1 0 0 
1 39.999999999999986 -159.99999999999994 -79.999999999999972 0 -2.2e-16 -1 
1 -39.999999999999986 -159.99999999999994 -79.999999999999972 1 0 0 
1 -39.999999999999986 -159.99999999999997 -114.99999999999996 0 2.2e-16 1 
1 34.999999999999986 -4.9960000000000002e-14 -44.999999999999986 0 1 -1.1700000000000001e-15 
1 -39.999999999999986 -8.8819999999999994e-14 -79.999999999999972 0 1 -1.1700000000000001e-15 
1 39.999999999999986 -8.8819999999999994e-14 -79.999999999999972 0 1 -1.1700000000000001e-15 
1 39.999999999999986 -4.9960000000000002e-14 -44.999999999999986 0 1 -1.1700000000000001e-15 
Polygon3D 0
PolygonOnTriangulations 110
2 1 2 
p 0.6 1 0 40 
2 4 3 
p 0.6 1 0 40 
2 4 3 
p 0.6 1 0 40 
2 1 2 
p 0.6 1 0 40 
2 1 4 
p 0.6 1 0 5 
2 2 3 
p 0.6 1 0 5 
2 2 3 
p 0.6 1 0 5 
2 1 2 
p 0.6 1 0 5 
2 1 2 
p 0.6 1 0 40 
2 4 3 
p 0.6 1 0 40 
2 1 4 
p 0.6 1 0 35 
2 1 2 
p 0.6 1 0 35 
2 2 3 
p 0.6 1 0 35 
2 12 1 
p 0.6 1 0 35 
2 4 3 
p 0.6 1 0 40 
2 1 2 
p 0.6 1 0 40 
2 1 5 
p 0.6 1 0 5 
2 3 4 
p 0.6 1 0 5 
2 5 4 
p 0.6 1 5 10 
2 1 4 
p 0.6 1 5 10 
2 2 3 
p 0.6 1 0 10 
2 2 3 
p 0.6 1 0 10 
2 8 1 
p 0.6 1 0 80 
2 1 4 
p 0.6 1 0 80 
2 7 8 
p 0.6 1 0 35 
2 1 4 
p 0.6 1 0 35 
2 6 7 
p 0.6 1 0 5 
2 1 4 
p 0.6 1 0 5 
2 5 6 
p 0.6 1 5 10 
2 5 4 
p 0.6 1 5 10 
2 4 5 
p 0.6 1 0 70 
2 1 4 
p 0.6 1 0 70 
2 3 4 
p 0.6 1 0 5 
2 2 3 
p 0.6 1 0 5 
2 4 5 
p 0.6 1 0 35 
2 2 3 
p 0.6 1 0 35 
2 5 6 
p 0.6 1 0 80 
2 2 3 
p 0.6 1 0 80 
2 6 7 
p 0.6 1 0 35 
2 2 3 
p 0.6 1 0 35 
2 7 8 
p 0.6 1 0 5 
2 2 3 
p 0.6 1 0 5 
2 8 9 
p 0.6 1 0 10 
2 2 3 
p 0.6 1 0 10 
2 9 10 
p 0.6 1 0 5 
2 2 3 
p 0.6 1 0 5 
2 10 11 
p 0.6 1 0 35 
2 2 3 
p 0.6 1 0 35 
2 11 12 
p 0.6 1 0 80 
2 2 3 
p 0.6 1 0 80 
2 1 2 
p 0.6 1 0 40 
2 4 3 
p 0.6 1 0 40 
2 4 3 
p 0.6 1 0 40 
2 1 2 
p 0.6 1 0 40 
2 1 4 
p 0.6 1 0 5 
2 1 4 
p 0.6 1 0 5 
2 1 2 
p 0.6 1 0 160 
2 1 2 
p 0.6 1 0 160 
2 4 3 
p 0.6 1 0 160 
2 1 2 
p 0.6 1 0 160 
2 2 3 
p 0.6 1 0 5 
2 1 8 
p 0.6 1 0 5 
2 1 2 
p 0.6 1 0 40 
2 4 3 
p 0.6 1 0 40 
2 1 2 
p 0.6 1 0 40 
2 4 3 
p 0.6 1 0 40 
2 1 2 
p 0.6 1 0 40 
2 4 3 
p 0.6 1 0 40 
2 1 5 
p 0.6 1 0 5 
2 1 4 
p 0.6 1 0 5 
2 4 3 
p 0.6 1 0 160 
2 4 3 
p 0.6 1 0 160 
2 2 3 
p 0.6 1 0 70 
2 1 2 
p 0.6 1 0 70 
2 4 3 
p 0.6 1 0 40 
2 1 2 
p 0.6 1 0 40 
2 1 4 
p 0.6 1 0 35 
2 1 4 
p 0.6 1 0 35 
2 4 3 
p 0.6 1 0 40 
2 1 2 
p 0.6 1 0 40 
2 1 4 
p 0.6 1 0 80 
2 1 4 
p 0.6 1 0 80 
2 4 3 
p 0.6 1 0 40 
2 1 2 
p 0.6 1 0 40 
2 1 4 
p 0.6 1 0 35 
2 1 4 
p 0.6 1 0 35 
2 1 4 
p 0.6 1 0 5 
2 1 4 
p 0.6 1 0 5 
2 4 3 
p 0.6 1 0 160 
2 1 2 
p 0.6 1 0 160 
2 2 3 
p 0.6 1 0 5 
2 8 7 
p 0.6 1 0 5 
2 3 2 
p 0.6 1 0 5 
2 2 3 
p 0.6 1 0 5 
2 4 3 
p 0.6 1 0 5 
2 2 3 
p 0.6 1 0 5 
2 5 4 
p 0.6 1 0 35 
2 2 3 
p 0.6 1 0 35 
2 6 5 
p 0.6 1 0 80 
2 2 3 
p 0.6 1 0 80 
2 7 6 
p 0.6 1 0 35 
2 2 3 
p 0.6 1 0 35 
2 1 2 
p 0.6 1 0 160 
2 4 3 
p 0.6 1 0 160 
2 4 3 
p 0.6 1 0 160 
2 1 2 
p 0.6 1 0 160 
2 4 3 
p 0.6 1 0 160 
2 1 2 
p 0.6 1 0 160 
2 4 3 
p 0.6 1 0 160 
2 1 2 
p 0.6 1 0 160 
Surfaces 23
1 -39.999999999999993 -2.3310000000000001e-14 -34.999999999999993 0 6.7000000000000004e-16 1 1 0 -0 -0 1 -6.7000000000000004e-16 
1 -39.999999999999993 0 0 1 0 0 0 -6.7000000000000004e-16 -1 0 1 -6.7000000000000004e-16 
1 -34.999999999999993 -2.3310000000000001e-14 -34.999999999999993 1 0 0 0 -6.7000000000000004e-16 -1 0 1 -6.7000000000000004e-16 
1 0 39.999999999999993 -1.7760000000000001e-14 0 -4.4e-16 -1 0 1 -4.4e-16 1 0 0 
1 0 79.999999999999972 -40.000000000000014 0 -4.4e-16 -1 0 1 -4.4e-16 1 0 0 
1 39.999999999999993 0 0 0 -6.7000000000000004e-16 -1 -1 -0 0 -0 1 -6.7000000000000004e-16 
1 -34.999999999999993 -2.9980000000000002e-14 -44.999999999999993 0 -6.7000000000000004e-16 -1 -1 -0 0 -0 1 -6.7000000000000004e-16 
1 -34.999999999999986 -4.4409999999999997e-14 -39.999999999999986 -1 -0 0 0 -1.1100000000000001e-15 -1 0 -1 1.1100000000000001e-15 
1 39.999999999999993 -2.3310000000000001e-14 -34.999999999999993 -1 0 0 0 6.7000000000000004e-16 1 0 1 -6.7000000000000004e-16 
1 34.999999999999993 -2.3310000000000001e-14 -34.999999999999993 0 6.7000000000000004e-16 1 1 0 -0 -0 1 -6.7000000000000004e-16 
1 34.999999999999993 -2.9980000000000002e-14 -44.999999999999993 -1 0 0 0 6.7000000000000004e-16 1 0 1 -6.7000000000000004e-16 
1 -34.999999999999986 -4.4409999999999997e-14 -39.999999999999986 0 -1.1700000000000001e-15 -1 1 0 0 0 -1 1.1700000000000001e-15 
1 -39.999999999999993 -2.9980000000000002e-14 -44.999999999999993 1 0 0 0 -6.7000000000000004e-16 -1 0 1 -6.7000000000000004e-16 
1 -39.999999999999993 -5.3289999999999999e-14 -79.999999999999986 0 6.7000000000000004e-16 1 1 0 -0 -0 1 -6.7000000000000004e-16 
1 39.999999999999993 -5.3289999999999999e-14 -79.999999999999986 -1 0 0 0 6.7000000000000004e-16 1 0 1 -6.7000000000000004e-16 
1 39.999999999999993 -2.9980000000000002e-14 -44.999999999999993 0 -6.7000000000000004e-16 -1 -1 -0 0 -0 1 -6.7000000000000004e-16 
1 -34.999999999999986 -4.9960000000000002e-14 -44.999999999999986 0 1.1700000000000001e-15 1 -1 0 0 0 -1 1.1700000000000001e-15 
1 2.0099999999999999e-15 -99.791666666666544 160.00000000000003 -0 8.9000000000000007e-16 1 0 -1 8.9000000000000007e-16 1 0 0 
1 34.999999999999986 -4.9960000000000002e-14 -44.999999999999986 1 -0 -2.84e-15 2.84e-15 1.1100000000000001e-15 1 3.1524000000000004e-30 -1 1.1100000000000001e-15 
1 -39.999999999999986 -4.9960000000000002e-14 -44.999999999999986 -1 -0 0 0 -1.1100000000000001e-15 -1 0 -1 1.1100000000000001e-15 
1 -39.999999999999986 -8.8819999999999994e-14 -79.999999999999972 0 -1.1700000000000001e-15 -1 1 0 0 0 -1 1.1700000000000001e-15 
1 39.999999999999986 -8.8819999999999994e-14 -79.999999999999972 1 0 0 -0 1.1100000000000001e-15 1 0 -1 1.1100000000000001e-15 
1 39.999999999999986 -4.9960000000000002e-14 -44.999999999999986 0 1.1700000000000001e-15 1 -1 0 0 0 -1 1.1700000000000001e-15 
Triangulations 23
4 2 1 0.6
-40 -4.7e-14 -35 -40 -40 -34.9999999999999 -35 -40 -34.9999999999999 -35 -4.7e-14 -35 0 1.4210854715202e-14 0 -40 5 -40 5 1.4210854715202e-14 4 1 2 4 2 3 
4 2 1 0.6
-40 0 0 -40 -40 5.3e-14 -40 -40 -34.9999999999999 -40 -4.7e-14 -35 0 0 1.9694572642399e-14 -40 35 -40 35 1.4210854715202e-14 4 1 2 4 2 3 
5 3 1 0.6
-35 -4.7e-14 -35 -35 -40 -34.9999999999999 -35 -40 -44.9999999999999 -35 -6e-14 -45 -35 -5.3e-14 -40 -1.04118e-29 1.4210854715202e-14 1.9694572642399e-14 -40 10 -40 10 2.1316282072803e-14 5 2.1316282072803e-14 5 1 2 5 2 3 4 5 3 
8 6 1 0.6
-40 0 0 -40 -4.7e-14 -35 -35 -4.7e-14 -35 -35 -5.3e-14 -40 35 -5.3e-14 -40 35 -4.7e-14 -35 40 -4.7e-14 -35 40 0 0 -40 -40 -5 -40 -5 -35 -7.105427357601e-15 -35 0 35 -5 35 -5 40 -40 40 3 1 2 6 3 4 6 8 1 6 1 3 5 6 4 7 8 6 
12 10 1 0.6
-40 74.9999999999999 -40 -35 74.9999999999999 -40 -35 84.9999999999999 -40.0000000000001 -40 84.9999999999999 -40.0000000000001 -40 120 -40.0000000000001 40 120 -40.0000000000001 40 84.9999999999999 -40.0000000000001 35 84.9999999999999 -40.0000000000001 35 74.9999999999999 -40 40 74.9999999999999 -40 40 40 -40 -40 40 -40 -4.99999999999999 -40 -4.99999999999999 -35 5.00000000000001 -35 5.00000000000001 -40 40 -40 40 40 5.00000000000001 40 5.00000000000001 35 -4.99999999999999 35 -4.99999999999999 40 -40 40 -40 -40 2 12 1 5 3 4 9 11 12 9 12 2 10 11 9 8 2 3 8 9 2 6 7 8 6 3 5 6 8 3 
4 2 1 0.6
40 0 0 40 -40 5.3e-14 -40 -40 5.3e-14 -40 0 0 0 0 0 -40 80 -40 80 0 4 1 2 4 2 3 
4 2 1 0.6
-35 -6e-14 -45 -35 -40 -44.9999999999999 -40 -40 -44.9999999999999 -40 -6e-14 -45 0 2.1316282072803e-14 0 -40 5 -40 5 2.1316282072803e-14 4 1 2 4 2 3 
4 2 1 0.6
-35 -5.3e-14 -40 -35 160 -40.0000000000002 -35 160 -45.0000000000002 -35 -6e-14 -45 6.21724893790088e-15 -2.8421709430404e-14 3.556282072803e-14 -160 5.00000000000001 -160 5.00000000000001 -2.8421709430404e-14 4 1 2 4 2 3 
4 2 1 0.6
40 -4.7e-14 -35 40 -40 -34.9999999999999 40 -40 5.3e-14 40 0 0 9.46633086265214e-30 1.4210854715202e-14 -1.9694572642399e-14 -40 35 -40 35 0 4 1 2 4 2 3 
4 2 1 0.6
35 -4.7e-14 -35 35 -40 -34.9999999999999 40 -40 -34.9999999999999 40 -4.7e-14 -35 0 1.4210854715202e-14 0 -40 5 -40 5 1.4210854715202e-14 4 1 2 4 2 3 
5 3 1 0.6
35 -6e-14 -45 35 -40 -44.9999999999999 35 -40 -34.9999999999999 35 -4.7e-14 -35 35 -5.3e-14 -40 1.26217744835362e-29 2.1316282072803e-14 -1.9694572642399e-14 -40 10 -40 10 1.4210854715202e-14 5 1.4210854715202e-14 5 1 2 5 2 3 4 5 3 
4 2 1 0.6
-35 -5.3e-14 -40 -35 160 -40.0000000000002 35 160 -40.0000000000002 35 -5.3e-14 -40 0 0 0 -160 70 -160 70 0 1 2 3 4 1 3 
4 2 1 0.6
-40 -6e-14 -45 -40 -40 -44.9999999999999 -40 -40.0000000000001 -79.9999999999999 -40 -1.07e-13 -80 -1.33933e-29 2.1316282072803e-14 1.9694572642399e-14 -40 35 -40 35 3.5527136788005e-14 4 1 2 4 2 3 
4 2 1 0.6
-40 -1.07e-13 -80 -40 -40.0000000000001 -79.9999999999999 40 -40.0000000000001 -79.9999999999999 40 -1.07e-13 -80 0 3.5527136788005e-14 0 -39.9999999999999 80 -40 80 3.5527136788005e-14 4 1 2 4 2 3 
4 2 1 0.6
40 -1.07e-13 -80 40 -40.0000000000001 -79.9999999999999 40 -40 -44.9999999999999 40 -6e-14 -45 2.36658271566304e-29 3.5527136788005e-14 -1.2589145284798e-14 -39.9999999999999 35 -40 35 2.1316282072803e-14 4 1 2 4 2 3 
4 2 1 0.6
40 -6e-14 -45 40 -40 -44.9999999999999 35 -40 -44.9999999999999 35 -6e-14 -45 0 2.1316282072803e-14 0 -40 5 -40 5 2.1316282072803e-14 4 1 2 4 2 3 
4 2 1 0.6
-35 -6e-14 -45 -35 160 -45.0000000000002 -40 160 -45.0000000000002 -40 -6e-14 -45 7.105427357601e-15 -2.8421709430404e-14 0 -160 5 -160 5.00000000000001 -2.8421709430404e-14 1 2 3 4 1 3 
8 6 1 0.6
-35 -120 160 35 -120 160 35 -115 160 40 -115 160 40 -79.9999999999998 160 -40 -79.9999999999998 160 -40 -115 160 -35 -115 160 20.2083333333333 -35 20.2083333333333 35 15.2083333333333 35 15.2083333333333 40 -19.7916666666667 40 -19.7916666666667 -40 15.2083333333333 -40 15.2083333333333 -35 8 6 7 3 5 6 3 8 1 3 6 8 4 5 3 2 3 1 
4 2 1 0.6
35 -6e-14 -45 35 160 -45.0000000000002 35 160 -40.0000000000002 35 -5.3e-14 -40 -7.10542735760096e-15 -2.8421709430404e-14 -3.556282072803e-14 -160 4.99999999999999 -160 4.99999999999999 -2.8421709430404e-14 1 2 3 4 1 3 
4 2 1 0.6
-40 -6e-14 -45 -40 160 -45.0000000000002 -40 160 -80.0000000000002 -40 -1.07e-13 -80 7.10542735760096e-15 -2.8421709430404e-14 3.556282072803e-14 -160 35 -160 35 -8.5265128291212e-14 4 1 2 4 2 3 
4 2 1 0.6
-40 -1.07e-13 -80 -40 160 -80.0000000000002 40 160 -80.0000000000002 40 -1.07e-13 -80 -7.105427357601e-15 -8.5265128291212e-14 0 -160 80 -160 80 -8.5265128291212e-14 4 1 2 4 2 3 
4 2 1 0.6
40 -1.07e-13 -80 40 160 -80.0000000000002 40 160 -45.0000000000002 40 -6e-14 -45 -1.42108547152019e-14 -8.5265128291212e-14 -3.55628207280301e-14 -160 35 -160 35 -2.8421709430404e-14 1 2 3 4 1 3 
4 2 1 0.6
40 -6e-14 -45 40 160 -45.0000000000002 35 160 -45.0000000000002 35 -6e-14 -45 -7.105427357601e-15 -2.8421709430404e-14 0 -160 5 -160 4.99999999999999 -2.8421709430404e-14 1 2 3 4 1 3 

TShapes 138
Ve
1e-07
-40 35 -4.7e-14
0 0

0101101
*
Ve
1e-07
-40 34.9999999999999 -40
0 0

0101101
*
Ed
 1e-07 1 1 0
1  1 0 0 40
6  1 1 0
6  2 2 0
0

0101000
+138 6 -137 6 *
Ve
1e-07
-35 35 -4.7e-14
0 0

0101101
*
Ve
1e-07
-35 34.9999999999999 -40
0 0

0101101
*
Ed
 1e-07 1 1 0
1  2 0 0 40
6  3 1 0
6  4 3 7
0

0101000
+135 6 -134 6 *
Ed
 1e-07 1 1 0
1  3 0 0 5
6  5 1 12
6  6 4 13
0

0101000
+138 14 -135 14 *
Ed
 1e-07 1 1 0
1  4 0 0 5
6  7 1 17
6  8 5 18
0

0101000
+137 19 -134 19 *
Wi

0101100
+136 0 -133 0 -132 11 +131 16 *
Fa
0  1e-07 1 0
2  1
0111000
+130 0 *
Ve
1e-07
-40 0 0
0 0

0101101
*
Ve
1e-07
-40 -5.3e-14 -40
0 0

0101101
*
Ed
 1e-07 1 1 0
1  5 0 0 40
6  9 2 0
6  10 6 0
0

0101000
+128 6 -127 6 *
Ed
 1e-07 1 1 0
1  6 0 0 35
6  11 2 12
6  12 4 13
0

0101000
+128 14 -138 14 *
Ed
 1e-07 1 1 0
1  7 0 0 35
6  13 2 17
6  14 5 18
0

0101000
+127 19 -137 19 *
Wi

0101100
+126 0 -136 0 -125 11 +124 16 *
Fa
0  1e-07 2 0
2  2
0111000
+123 0 *
Ve
1e-07
-35 45 -6e-14
0 0

0101101
*
Ve
1e-07
-35 44.9999999999999 -40
0 0

0101101
*
Ed
 1e-07 1 1 0
1  8 0 0 40
6  15 3 7
6  16 7 7
0

0101000
+121 6 -120 6 *
Ve
1e-07
-35 40 -5.3e-14
0 0

0101101
*
Ed
 1e-07 1 1 0
1  9 0 0 5
6  17 3 13
6  18 4 13
0

0101000
+135 14 -118 14 *
Ed
 1e-07 1 1 0
1  10 0 5 10
6  19 3 13
6  20 8 13
0

0101000
+118 14 -121 14 *
Ed
 1e-07 1 1 0
1  11 0 0 10
6  21 3 22
6  22 5 18
0

0101000
+134 19 -120 19 *
Wi

0101100
+133 4 -119 4 -117 20 -116 20 +115 21 *
Fa
0  1e-07 3 4
2  3
0111000
+114 0 *
Ve
1e-07
40 0 0
0 0

0101101
*
Ed
 1e-07 1 1 0
1  12 0 0 80
6  23 4 13
6  24 6 12
0

0101000
+112 14 -128 14 *
Ve
1e-07
40 35 -4.7e-14
0 0

0101101
*
Ed
 1e-07 1 1 0
1  13 0 0 35
6  25 4 13
6  26 9 12
0

0101000
+110 14 -112 14 *
Ve
1e-07
35 35 -4.7e-14
0 0

0101101
*
Ed
 1e-07 1 1 0
1  14 0 0 5
6  27 4 13
6  28 10 12
0

0101000
+108 14 -110 14 *
Ve
1.00000014e-07
35 40 -5.3e-14
0 0

0101101
*
Ed
 1e-07 1 1 0
1  15 0 5 10
6  29 4 13
6  30 11 13
0

0101000
+106 14 -108 14 *
Ed
 1e-07 1 1 0
1  16 0 0 70
6  31 4 27
6  32 12 27
0

0101000
+118 28 -106 28 *
Wi

0101100
+125 20 +111 20 +109 20 +107 20 +105 20 +104 26 +117 20 +132 20 *
Fa
0  1e-07 4 23
2  4
0111000
+103 0 *
Ve
1e-07
-40 44.9999999999999 -40
0 0

0101101
*
Ed
 1e-07 1 1 0
1  17 0 0 5
6  33 5 18
6  34 7 22
0

0101000
+120 19 -101 19 *
Ve
1e-07
-40 79.9999999999999 -40.0000000000001
0 0

0101101
*
Ed
 1e-07 1 1 0
1  18 0 0 35
6  35 5 18
6  36 13 22
0

0101000
+101 19 -99 19 *
Ve
1e-07
40 79.9999999999999 -40.0000000000001
0 0

0101101
*
Ed
 1e-07 1 1 0
1  19 0 0 80
6  37 5 18
6  38 14 22
0

0101000
+99 19 -97 19 *
Ve
1e-07
40 44.9999999999999 -40
0 0

0101101
*
Ed
 1e-07 1 1 0
1  20 0 0 35
6  39 5 18
6  40 15 22
0

0101000
+97 19 -95 19 *
Ve
1e-07
35 44.9999999999999 -40
0 0

0101101
*
Ed
 1e-07 1 1 0
1  21 0 0 5
6  41 5 18
6  42 16 22
0

0101000
+95 19 -93 19 *
Ve
1e-07
35 34.9999999999999 -40
0 0

0101101
*
Ed
 1e-07 1 1 0
1  22 0 0 10
6  43 5 18
6  44 11 22
0

0101000
+93 19 -91 19 *
Ve
1e-07
40 34.9999999999999 -40
0 0

0101101
*
Ed
 1e-07 1 1 0
1  23 0 0 5
6  45 5 18
6  46 10 17
0

0101000
+91 19 -89 19 *
Ve
1e-07
40 -5.3e-14 -40
0 0

0101101
*
Ed
 1e-07 1 1 0
1  24 0 0 35
6  47 5 18
6  48 9 17
0

0101000
+89 19 -87 19 *
Ed
 1e-07 1 1 0
1  25 0 0 80
6  49 5 18
6  50 6 17
0

0101000
+87 19 -127 19 *
Wi

0101100
+131 0 +115 0 +100 0 +98 0 +96 0 +94 0 +92 0 +90 0 +88 0 +86 0 
+85 0 +124 0 *
Fa
0  1e-07 5 0
2  5
0111000
+84 30 *
Ed
 1e-07 1 1 0
1  26 0 0 40
6  51 6 0
6  52 9 0
0

0101000
+112 6 -87 6 *
Wi

0101100
+82 0 -126 0 -111 11 +85 16 *
Fa
0  1e-07 6 0
2  6
0111000
+81 0 *
Ve
1e-07
-40 45 -6e-14
0 0

0101101
*
Ed
 1e-07 1 1 0
1  27 0 0 40
6  53 7 7
6  54 13 7
0

0101000
+79 6 -101 6 *
Ed
 1e-07 1 1 0
1  28 0 0 5
6  55 7 13
6  56 17 13
0

0101000
+121 14 -79 14 *
Wi

0101100
+119 4 -78 4 -77 20 +100 21 *
Fa
0  1e-07 7 4
2  7
0111000
+76 0 *
Ve
1e-07
-35 40.0000000000002 160
0 0

0101101
*
Ed
 1e-07 1 1 0
1  29 0 0 160
6  57 8 0
6  58 12 0
0

0101000
+118 31 -74 31 *
Ve
1e-07
-35 45.0000000000002 160
0 0

0101101
*
Ed
 1e-07 1 1 0
1  30 0 0 160
6  59 8 0
6  60 17 0
0

0101000
+121 31 -72 31 *
Ed
 1e-07 1 1 0
1  31 0 0 5
6  61 8 34
6  62 18 35
0

0101000
+74 36 -72 36 *
Wi

0101100
+73 0 -71 0 -116 20 +70 33 *
Fa
0  1e-07 8 0
2  8
0111000
+69 0 *
Ed
 1e-07 1 1 0
1  32 0 0 40
6  63 9 0
6  64 10 0
0

0101000
+110 6 -89 6 *
Wi

0101100
+67 0 -82 0 -109 11 +86 16 *
Fa
0  1e-07 9 0
2  9
0111000
+66 0 *
Ed
 1e-07 1 1 0
1  33 0 0 40
6  65 10 0
6  66 11 7
0

0101000
+108 6 -91 6 *
Wi

0101100
+64 0 -67 0 -107 11 +88 16 *
Fa
0  1e-07 10 0
2  10
0111000
+63 0 *
Ve
1.00000014e-07
35 45 -6e-14
0 0

0101101
*
Ed
 1e-07 1 1 0
1  34 0 0 40
6  67 11 7
6  68 16 7
0

0101000
+61 6 -93 6 *
Ed
 1.00000014e-07 1 1 0
1  35 0 0 5
6  69 11 13
6  70 19 13
0

0101000
+61 14 -106 14 *
Wi

0101100
+60 4 -64 4 -59 20 -105 20 +90 21 *
Fa
0  1e-07 11 4
2  11
0111000
+58 0 *
Ve
1.00000014e-07
35 40.0000000000002 160
0 0

0101101
*
Ed
 1e-07 1 1 0
1  36 0 0 160
6  71 12 0
6  72 19 0
0

0101000
+106 31 -56 31 *
Ed
 1e-07 1 1 0
1  37 0 0 70
6  73 12 34
6  74 18 35
0

0101000
+74 36 -56 36 *
Wi

0101100
+73 0 -55 0 -104 26 +54 33 *
Fa
0  1e-07 12 0
2  12
0111000
+53 0 *
Ve
1e-07
-40 80 -1.07e-13
0 0

0101101
*
Ed
 1e-07 1 1 0
1  38 0 0 40
6  75 13 7
6  76 14 7
0

0101000
+51 6 -99 6 *
Ed
 1e-07 1 1 0
1  39 0 0 35
6  77 13 13
6  78 20 13
0

0101000
+79 14 -51 14 *
Wi

0101100
+78 4 -50 4 -49 20 +98 21 *
Fa
0  1e-07 13 4
2  13
0111000
+48 0 *
Ve
1e-07
40 80 -1.07e-13
0 0

0101101
*
Ed
 1e-07 1 1 0
1  40 0 0 40
6  79 14 7
6  80 15 7
0

0101000
+46 6 -97 6 *
Ed
 1e-07 1 1 0
1  41 0 0 80
6  81 14 13
6  82 21 13
0

0101000
+51 14 -46 14 *
Wi

0101100
+50 4 -45 4 -44 20 +96 21 *
Fa
0  1e-07 14 4
2  14
0111000
+43 0 *
Ve
1e-07
40 45 -6e-14
0 0

0101101
*
Ed
 1e-07 1 1 0
1  42 0 0 40
6  83 15 7
6  84 16 7
0

0101000
+41 6 -95 6 *
Ed
 1e-07 1 1 0
1  43 0 0 35
6  85 15 13
6  86 22 13
0

0101000
+46 14 -41 14 *
Wi

0101100
+45 4 -40 4 -39 20 +94 21 *
Fa
0  1e-07 15 4
2  15
0111000
+38 0 *
Ed
 1e-07 1 1 0
1  44 0 0 5
6  87 16 13
6  88 23 13
0

0101000
+41 14 -61 14 *
Wi

0101100
+40 4 -60 4 -36 20 +92 21 *
Fa
0  1e-07 16 4
2  16
0111000
+35 0 *
Ve
1e-07
-40 45.0000000000002 160
0 0

0101101
*
Ed
 1e-07 1 1 0
1  45 0 0 160
6  89 17 0
6  90 20 0
0

0101000
+79 31 -33 31 *
Ed
 1e-07 1 1 0
1  46 0 0 5
6  91 17 34
6  92 18 35
0

0101000
+72 36 -33 36 *
Wi

0101100
+71 0 -32 0 -77 20 +31 33 *
Fa
0  1e-07 17 0
2  17
0111000
+30 0 *
Ve
1e-07
35 45.0000000000002 160
0 0

0101101
*
Ed
 1e-07 1 1 0
1  47 0 0 5
6  93 18 35
6  94 19 34
0

0101000
+28 36 -56 36 *
Ve
1e-07
40 45.0000000000002 160
0 0

0101101
*
Ed
 1e-07 1 1 0
1  48 0 0 5
6  95 18 35
6  96 23 34
0

0101000
+26 36 -28 36 *
Ve
1e-07
40 80.0000000000002 160
0 0

0101101
*
Ed
 1e-07 1 1 0
1  49 0 0 35
6  97 18 35
6  98 22 34
0

0101000
+24 36 -26 36 *
Ve
1e-07
-40 80.0000000000002 160
0 0

0101101
*
Ed
 1e-07 1 1 0
1  50 0 0 80
6  99 18 35
6  100 21 34
0

0101000
+22 36 -24 36 *
Ed
 1e-07 1 1 0
1  51 0 0 35
6  101 18 35
6  102 20 34
0

0101000
+33 36 -22 36 *
Wi

0101100
+54 0 -27 0 -25 0 -23 0 -21 0 -20 0 -31 0 -70 0 *
Fa
0  1e-07 18 0
2  18
0111000
+19 38 *
Ed
 1e-07 1 1 0
1  52 0 0 160
6  103 19 0
6  104 23 0
0

0101000
+61 31 -28 31 *
Wi

0101100
+17 0 -55 0 -59 20 +27 33 *
Fa
0  1e-07 19 0
2  19
0111000
+16 0 *
Ed
 1e-07 1 1 0
1  53 0 0 160
6  105 20 0
6  106 21 0
0

0101000
+51 31 -22 31 *
Wi

0101100
+32 0 -14 0 -49 20 +20 33 *
Fa
0  1e-07 20 0
2  20
0111000
+13 0 *
Ed
 1e-07 1 1 0
1  54 0 0 160
6  107 21 0
6  108 22 0
0

0101000
+46 31 -24 31 *
Wi

0101100
+14 0 -11 0 -44 20 +21 33 *
Fa
0  1e-07 21 0
2  21
0111000
+10 0 *
Ed
 1e-07 1 1 0
1  55 0 0 160
6  109 22 0
6  110 23 0
0

0101000
+41 31 -26 31 *
Wi

0101100
+11 0 -8 0 -39 20 +23 33 *
Fa
0  1e-07 22 0
2  22
0111000
+7 0 *
Wi

0101100
+8 0 -17 0 -36 20 +25 33 *
Fa
0  1e-07 23 0
2  23
0111000
+5 0 *
Sh

0101100
-129 4 -122 4 -113 0 -102 0 +83 29 -80 4 -75 0 +68 0 -65 4 -62 4 
-57 0 -52 0 -47 0 -42 0 -37 0 -34 0 +29 0 +18 37 +15 0 +12 0 
+9 0 +6 0 +4 0 *
So

0100000
+3 0 *
Co

1100000
+2 1 *

+1 0 